<svg xmlns="http://www.w3.org/2000/svg" width="21" height="21" viewBox="0 0 21 21" fill="none">
  <path d="M3.51664 0.5C3.91959 0.5 4.28591 0.851562 4.35917 1.28125L4.43243 1.75H19.8177C20.587 1.75 21.1731 2.57031 20.9533 3.35156L18.9752 10.8516C18.8287 11.3984 18.3891 11.75 17.8396 11.75H6.22739L6.55707 13.625H17.8763C18.3525 13.625 18.7554 14.0547 18.7554 14.5625C18.7554 15.1094 18.3525 15.5 17.8763 15.5H5.82444C5.42149 15.5 5.05517 15.1875 4.98191 14.7578L2.78401 2.375H0.87916C0.366317 2.375 0 1.98438 0 1.4375C0 0.929688 0.366317 0.5 0.87916 0.5H3.51664ZM4.68886 18.625C4.68886 17.6094 5.45812 16.75 6.44718 16.75C7.3996 16.75 8.2055 17.6094 8.2055 18.625C8.2055 19.6797 7.3996 20.5 6.44718 20.5C5.45812 20.5 4.68886 19.6797 4.68886 18.625ZM18.7554 18.625C18.7554 19.6797 17.9495 20.5 16.9971 20.5C16.008 20.5 15.2388 19.6797 15.2388 18.625C15.2388 17.6094 16.008 16.75 16.9971 16.75C17.9495 16.75 18.7554 17.6094 18.7554 18.625Z" fill="currentColor"/>
</svg>