<svg xmlns="http://www.w3.org/2000/svg" width="20" height="20" viewBox="0 0 20 20" fill="none">
  <path d="M2.8 4.3125C2.8 3.60156 3.39062 3 4.15 3H11.35C12.0812 3 12.7 3.60156 12.7 4.3125V10H18.1V12.625C18.5781 12.625 19 13.0352 19 13.5C19 13.9922 18.5781 14.375 18.1 14.375H17.2C17.2 15.8242 15.9906 17 14.5 17C12.9812 17 11.8 15.8242 11.8 14.375H8.2C8.2 15.8242 6.99062 17 5.5 17C3.98125 17 2.8 15.8242 2.8 14.375V10.875H6.85C7.075 10.875 7.3 10.6836 7.3 10.4375C7.3 10.2188 7.075 10 6.85 10H1.45C1.19687 10 1 9.80859 1 9.5625C1 9.34375 1.19687 9.125 1.45 9.125H7.75C7.975 9.125 8.2 8.93359 8.2 8.6875C8.2 8.46875 7.975 8.25 7.75 8.25H2.35C2.09687 8.25 1.9 8.05859 1.9 7.8125C1.9 7.59375 2.09687 7.375 2.35 7.375H8.65C8.875 7.375 9.1 7.18359 9.1 6.9375C9.1 6.71875 8.875 6.5 8.65 6.5H1.45C1.19687 6.5 1 6.30859 1 6.0625C1 5.84375 1.19687 5.625 1.45 5.625H2.8V4.3125ZM5.5 15.6875C6.23125 15.6875 6.85 15.1133 6.85 14.375C6.85 13.6641 6.23125 13.0625 5.5 13.0625C4.74062 13.0625 4.15 13.6641 4.15 14.375C4.15 15.1133 4.74062 15.6875 5.5 15.6875ZM14.5 13.0625C13.7406 13.0625 13.15 13.6641 13.15 14.375C13.15 15.1133 13.7406 15.6875 14.5 15.6875C15.2312 15.6875 15.85 15.1133 15.85 14.375C15.85 13.6641 15.2312 13.0625 14.5 13.0625ZM14.1062 7.375H12.25V5.625H14.1062C14.5844 5.625 15.0344 5.81641 15.4 6.14453L17.5656 8.25C17.9031 8.57812 18.1 9.04297 18.1 9.50781V10.875H16.3V9.50781L14.1062 7.375Z" fill="#008D49"/>
</svg>