<svg xmlns="http://www.w3.org/2000/svg" width="40" height="40" viewBox="0 0 40 40" fill="none">
  <path d="M34 28C34 31.375 31.3125 34 28 34C24.625 34 22 31.375 22 28C22 27.8125 22 27.5625 22.0625 27.3125L16.125 24.375C15.0625 25.375 13.5625 26 12 26C8.625 26 6 23.375 6 20C6 16.6875 8.625 14 12 14C13.5625 14 15.0625 14.6875 16.125 15.6875L22.0625 12.75C22 12.5 22 12.25 22 12C22 8.6875 24.625 6 28 6C31.3125 6 34 8.6875 34 12C34 15.375 31.3125 18 28 18C26.375 18 24.875 17.375 23.8125 16.375L17.875 19.3125C17.9375 19.5625 18 19.75 18 20C18 20.25 17.9375 20.5 17.875 20.75L23.8125 23.6875C24.875 22.6875 26.375 22 28 22C31.3125 22 34 24.6875 34 28Z" fill="#00A445"/>
</svg>