<svg xmlns="http://www.w3.org/2000/svg" width="21" height="20" viewBox="0 0 21 20" fill="none">
  <path d="M5.91667 15.25C5.91667 16.2344 6.71875 17 7.75 17H13.25C14.2526 17 15.0833 16.2344 15.0833 15.25V6.5H5.91667V15.25ZM7.75 11.3125C7.75 11.0938 7.95052 10.875 8.20833 10.875H9.58333V9.5625C9.58333 9.34375 9.78385 9.125 10.0417 9.125H10.9583C11.1875 9.125 11.4167 9.34375 11.4167 9.5625V10.875H12.7917C13.0208 10.875 13.25 11.0938 13.25 11.3125V12.1875C13.25 12.4336 13.0208 12.625 12.7917 12.625H11.4167V13.9375C11.4167 14.1836 11.1875 14.375 10.9583 14.375H10.0417C9.78385 14.375 9.58333 14.1836 9.58333 13.9375V12.625H8.20833C7.95052 12.625 7.75 12.4336 7.75 12.1875V11.3125ZM15.3125 3H5.6875C5.28646 3 5 3.30078 5 3.65625V4.96875C5 5.35156 5.28646 5.625 5.6875 5.625H15.3125C15.6849 5.625 16 5.35156 16 4.96875V3.65625C16 3.30078 15.6849 3 15.3125 3Z" fill="#008D49"/>
</svg>